<svg width="259" height="293" viewBox="0 0 259 293" fill="none" xmlns="http://www.w3.org/2000/svg">
<mask id="mask0" mask-type="alpha" maskUnits="userSpaceOnUse" x="0" y="0" width="259" height="293">
<ellipse cx="129.007" cy="146.5" rx="129.007" ry="146.5" fill="#C4C4C4"/>
</mask>
<g mask="url(#mask0)">
<path d="M53.7869 134.474C7.86904 169.459 4.58919 204.444 25.3616 255.828C94.2384 296.28 116.104 310.493 222.153 272.228C245.112 238.336 246.205 203.351 227.619 179.299C215.593 212.097 195.019 189.138 202.473 161.806C209.928 134.474 199.194 115.888 180.608 99.4888C194.82 169.459 119.384 147.593 148.903 97.3022C167.324 65.9174 145.987 49.5622 140.156 44.8246C143.436 121.354 75.9724 80.903 108.451 24.0522C93.1451 41.5448 61.4399 68.8769 83.3056 121.354C113.371 193.511 35.2011 179.299 53.7869 134.474Z" fill="#F8A800" stroke="white" stroke-width="3"/>
<path d="M63.4105 194.605C17.4926 229.59 50.2911 277.694 71.0635 329.078C116.981 350.944 192.418 319.239 209.91 277.694C217.365 250.362 219.75 224.123 201.164 207.724C215.377 277.694 151.967 258.015 181.485 207.724C199.907 176.339 178.57 159.984 172.739 155.246C176.019 231.776 98.7154 177.112 131.194 120.261C115.888 137.754 91.9407 158.334 110.422 212.097C122.448 247.082 44.8247 239.429 63.4105 194.605Z" fill="#FFD600"/>
</g>
</svg>
