<svg width="154" height="300" viewBox="0 0 154 300" fill="none" xmlns="http://www.w3.org/2000/svg">
<path d="M55.7757 98.9041L54.0871 101.624L53.0779 98.5857C52.7749 97.6735 52.4923 96.7365 52.2112 95.804C51.6086 93.8056 51.0124 91.8285 50.2353 90.1641C49.6762 88.9669 49.1088 88.1399 48.5412 87.6741C48.0487 87.2699 47.5603 87.1293 46.8973 87.2933L45.6072 84.6602C46.9917 83.5665 48.3592 82.5219 49.696 81.5008C51.3414 80.244 52.9402 79.0228 54.4666 77.7895C57.2006 75.5804 59.392 73.5692 60.661 71.746C65.5022 64.7521 67.2101 58.4315 66.6506 52.2628C66.0866 46.0452 63.2029 39.7914 58.4926 32.9852C58.0066 32.2849 57.1908 31.3798 56.1051 30.2799C55.243 29.4066 54.2578 28.4567 53.1998 27.4368C52.9377 27.184 52.671 26.927 52.4007 26.6658C49.7117 24.067 46.6798 21.0758 44.4815 18.1222C43.3804 16.6427 42.4433 15.1142 41.8676 13.5957C41.2917 12.0763 41.0403 10.4657 41.4591 8.89844C42.3231 5.6648 45.6867 3.61524 51.2844 2.52754L52.1753 2.35443L52.7421 3.06327C61.5924 14.1322 69.8691 26.749 76.2276 39.3162C79.1708 45.0896 79.8072 50.5161 80.2243 55.7238C80.2685 56.2747 80.3102 56.822 80.3516 57.3665C80.7053 62.0094 81.0436 66.4492 82.7363 71.1339L82.738 71.1386C83.4575 73.1511 84.083 74.1931 84.6478 74.805C85.178 75.3793 85.7398 75.671 86.6178 76.0023C86.801 76.0715 87.0019 76.1433 87.2186 76.2208C88.0286 76.5104 89.0586 76.8786 90.2095 77.4798C91.6995 78.2583 93.407 79.4243 95.4271 81.3677L95.4385 81.3786L95.4496 81.3898C95.6696 81.6105 95.897 81.8349 96.1278 82.0626C96.8472 82.7722 97.5997 83.5144 98.2621 84.2813L99.2634 85.4407L98.0833 86.4174C90.2274 92.9191 80.4151 94.0625 72.2744 94.6933C71.5442 94.7499 70.8301 94.8022 70.1331 94.8532C66.8685 95.0922 63.9773 95.3039 61.5437 95.803C58.5835 96.4102 56.7304 97.3666 55.7757 98.9041Z" fill="#44833D" stroke="white" stroke-width="3"/>
<path d="M23.3754 247.432L23.3772 247.428C35.688 219.92 39.6749 205.632 45.5211 180.317C46.9699 174.017 46.0662 168.511 44.5622 162.883C44.1769 161.441 43.7463 159.976 43.3073 158.483C42.0552 154.223 40.7347 149.731 40.2035 144.885C39.5961 139.367 39.3884 135.571 39.7733 132.036C40.1601 128.484 41.136 125.276 42.7746 120.924C43.7436 118.309 42.8851 115.248 41.0676 111.789L41.0643 111.783L41.0611 111.777C40.3316 110.356 39.4991 108.992 38.6394 107.585C38.2543 106.954 37.8638 106.315 37.4747 105.657C34.451 100.597 35.2346 94.0136 39.5037 89.875L39.5047 89.874C41.3368 88.1013 43.4171 86.3412 45.543 84.6605L45.7977 84.4591L46.113 84.3811C46.9303 84.1789 48.1109 84.1703 49.3926 84.2248C50.7314 84.2816 52.3805 84.4201 54.2409 84.5966C55.2702 84.6943 56.3673 84.804 57.5212 84.9193C60.5659 85.2235 64.0062 85.5673 67.6416 85.8357C77.7285 86.5804 88.8916 86.7013 96.483 83.9174L97.4087 83.5779L98.0874 84.2931C99.3942 85.6699 100.565 87.0409 101.589 88.2615L101.604 88.2789L101.618 88.2967C103.033 90.091 103.863 92.415 103.787 94.7724L103.787 94.7807L103.786 94.7891C103.727 96.1634 103.864 97.1722 104.301 97.9616L104.301 97.9616L104.305 97.9696C105.862 100.822 106.739 103.671 107.208 106.498L107.21 106.511L107.212 106.525C108.392 114.506 105.752 122.437 102.711 130.121C102.183 131.455 101.643 132.782 101.106 134.103C98.4964 140.516 95.942 146.795 95.0442 153.178L95.044 153.18C93.2901 165.564 87.7261 179.162 82.4239 190.251L82.4238 190.251C78.2274 199.024 75.375 206.606 72.0068 215.56C71.7197 216.323 71.4287 217.096 71.1329 217.881L71.1315 217.885C69.1015 223.228 65.7738 227.792 62.3986 232.124C61.8833 232.785 61.3677 233.44 60.8548 234.092C57.9677 237.76 55.1684 241.316 53.0131 245.246L53.0115 245.249C51.7998 247.447 50.7333 249.742 49.6717 252.088C49.4992 252.469 49.3267 252.852 49.1536 253.236C48.2686 255.2 47.3702 257.194 46.3963 259.135C44.0619 263.788 41.2209 268.291 36.7722 271.844C35.1851 273.131 32.6436 275.604 29.5865 278.612C29.2654 278.928 28.9391 279.25 28.6083 279.576C25.8176 282.324 22.706 285.389 19.6587 288.22C16.2621 291.376 12.8825 294.302 10.0675 296.195C8.6714 297.133 7.31809 297.884 6.11073 298.249C4.95643 298.599 3.4566 298.725 2.35325 297.641C1.74778 297.051 1.5647 296.261 1.51594 295.63C1.46482 294.969 1.54118 294.226 1.68419 293.462C1.9716 291.926 2.58627 290.008 3.40012 287.875C5.03441 283.594 7.57459 278.189 10.2948 272.738C13.0195 267.277 15.9461 261.729 18.3648 257.152L18.6157 256.677C20.9318 252.295 22.7096 248.932 23.3754 247.432Z" fill="#F8A800" stroke="white" stroke-width="3"/>
<path d="M100.776 98.9041L99.0871 101.624L98.0779 98.5857C97.7749 97.6735 97.4923 96.7365 97.2112 95.804C96.6086 93.8056 96.0124 91.8285 95.2353 90.1641C94.6762 88.9669 94.1088 88.1399 93.5412 87.6741C93.0487 87.2699 92.5603 87.1293 91.8973 87.2933L90.6072 84.6602C91.9917 83.5665 93.3592 82.5219 94.696 81.5008C96.3414 80.244 97.9402 79.0228 99.4666 77.7895C102.201 75.5804 104.392 73.5692 105.661 71.746C110.502 64.7521 112.21 58.4315 111.651 52.2628C111.087 46.0452 108.203 39.7914 103.493 32.9852C103.007 32.2849 102.191 31.3798 101.105 30.2799C100.243 29.4066 99.2578 28.4567 98.1998 27.4368C97.9377 27.184 97.671 26.927 97.4007 26.6658C94.7117 24.067 91.6798 21.0758 89.4815 18.1222C88.3804 16.6427 87.4433 15.1142 86.8676 13.5957C86.2917 12.0763 86.0403 10.4657 86.4591 8.89844C87.3231 5.6648 90.6867 3.61524 96.2844 2.52754L97.1753 2.35443L97.7421 3.06327C106.592 14.1322 114.869 26.749 121.228 39.3162C124.171 45.0896 124.807 50.5161 125.224 55.7238C125.268 56.2747 125.31 56.822 125.352 57.3665C125.705 62.0094 126.044 66.4492 127.736 71.1339L127.738 71.1386C128.458 73.1511 129.083 74.1931 129.648 74.805C130.178 75.3793 130.74 75.671 131.618 76.0023C131.801 76.0715 132.002 76.1433 132.219 76.2208C133.029 76.5104 134.059 76.8786 135.209 77.4798C136.7 78.2583 138.407 79.4243 140.427 81.3677L140.438 81.3786L140.45 81.3898C140.67 81.6105 140.897 81.8349 141.128 82.0626C141.847 82.7722 142.6 83.5144 143.262 84.2813L144.263 85.4407L143.083 86.4174C135.227 92.9191 125.415 94.0625 117.274 94.6933C116.544 94.7499 115.83 94.8022 115.133 94.8532C111.869 95.0922 108.977 95.3039 106.544 95.803C103.583 96.4102 101.73 97.3666 100.776 98.9041Z" fill="#44833D" stroke="white" stroke-width="3"/>
<path d="M68.3754 247.432L68.3772 247.428C80.688 219.92 84.6749 205.632 90.5211 180.317C91.9699 174.017 91.0662 168.511 89.5622 162.883C89.1769 161.441 88.7463 159.976 88.3073 158.483C87.0552 154.223 85.7347 149.731 85.2035 144.885C84.5961 139.367 84.3884 135.571 84.7733 132.036C85.1601 128.484 86.136 125.276 87.7746 120.924C88.7436 118.309 87.8851 115.248 86.0676 111.789L86.0643 111.783L86.0611 111.777C85.3316 110.356 84.4991 108.992 83.6394 107.585C83.2543 106.954 82.8638 106.315 82.4747 105.657C79.451 100.597 80.2346 94.0136 84.5037 89.875L84.5047 89.874C86.3368 88.1013 88.4171 86.3412 90.543 84.6605L90.7977 84.4591L91.113 84.3811C91.9303 84.1789 93.1109 84.1703 94.3926 84.2248C95.7314 84.2816 97.3805 84.4201 99.2409 84.5966C100.27 84.6943 101.367 84.804 102.521 84.9193C105.566 85.2235 109.006 85.5673 112.642 85.8357C122.729 86.5804 133.892 86.7013 141.483 83.9174L142.409 83.5779L143.087 84.2931C144.394 85.6699 145.565 87.0409 146.589 88.2615L146.604 88.2789L146.618 88.2967C148.033 90.091 148.863 92.415 148.787 94.7724L148.787 94.7807L148.786 94.7891C148.727 96.1634 148.864 97.1722 149.301 97.9616L149.301 97.9616L149.305 97.9696C150.862 100.822 151.739 103.671 152.208 106.498L152.21 106.511L152.212 106.525C153.392 114.506 150.752 122.437 147.711 130.121C147.183 131.455 146.643 132.782 146.106 134.103C143.496 140.516 140.942 146.795 140.044 153.178L140.044 153.18C138.29 165.564 132.726 179.162 127.424 190.251L127.424 190.251C123.227 199.024 120.375 206.606 117.007 215.56C116.72 216.323 116.429 217.096 116.133 217.881L116.132 217.885C114.101 223.228 110.774 227.792 107.399 232.124C106.883 232.785 106.368 233.44 105.855 234.092C102.968 237.76 100.168 241.316 98.0131 245.246L98.0115 245.249C96.7998 247.447 95.7333 249.742 94.6717 252.088C94.4992 252.469 94.3267 252.852 94.1536 253.236C93.2686 255.2 92.3702 257.194 91.3963 259.135C89.0619 263.788 86.2209 268.291 81.7722 271.844C80.1851 273.131 77.6436 275.604 74.5865 278.612C74.2654 278.928 73.9391 279.25 73.6083 279.576C70.8176 282.324 67.706 285.389 64.6587 288.22C61.2621 291.376 57.8825 294.302 55.0675 296.195C53.6714 297.133 52.3181 297.884 51.1107 298.249C49.9564 298.599 48.4566 298.725 47.3532 297.641C46.7478 297.051 46.5647 296.261 46.5159 295.63C46.4648 294.969 46.5412 294.226 46.6842 293.462C46.9716 291.926 47.5863 290.008 48.4001 287.875C50.0344 283.594 52.5746 278.189 55.2948 272.738C58.0195 267.277 60.9461 261.729 63.3648 257.152L63.6157 256.677C65.9318 252.295 67.7096 248.932 68.3754 247.432Z" fill="#F8A800" stroke="white" stroke-width="3"/>
</svg>
